<?xml version="1.0" standalone="no"?>
<!DOCTYPE svg PUBLIC "-//W3C//DTD SVG 20010904//EN"
 "http://www.w3.org/TR/2001/REC-SVG-20010904/DTD/svg10.dtd">
<svg version="1.0" xmlns="http://www.w3.org/2000/svg"
 width="1280.000000pt" height="1280.000000pt" viewBox="0 0 1280.000000 1280.000000"
 preserveAspectRatio="xMidYMid meet">
<metadata>
Created by potrace 1.14, written by Peter Selinger 2001-2017
</metadata>
<g transform="translate(0.000000,1280.000000) scale(0.100000,-0.100000)"
fill="#000000" stroke="none">
<path d="M802 10170 c3 -16 2 -30 -1 -30 -7 0 -5 -129 2 -136 3 -3 1 -19 -3
-35 -5 -16 -5 -31 0 -34 5 -3 5 -16 0 -30 -6 -15 -6 -27 0 -30 5 -3 7 -11 5
-18 -2 -7 -6 -25 -9 -40 -4 -15 -11 -25 -17 -22 -5 4 -69 6 -142 5 -73 -1
-143 -1 -157 0 -81 6 -79 10 -82 -112 0 -13 0 -36 1 -53 1 -16 1 -39 1 -50 -1
-32 -1 -128 -1 -150 0 -11 0 -63 -1 -115 0 -52 1 -104 2 -115 2 -24 2 -21 0
-114 -1 -40 3 -78 9 -84 12 -12 87 -16 116 -6 11 3 29 3 40 -1 11 -4 30 -4 42
1 14 5 23 4 27 -4 3 -9 5 -9 5 0 1 9 8 10 25 3 13 -5 26 -7 27 -5 2 2 27 5 54
6 l50 3 1 -57 c1 -32 4 -60 6 -63 3 -2 2 -21 -1 -42 -4 -20 -4 -52 0 -69 3
-18 3 -33 -2 -33 -4 0 -4 -13 1 -29 4 -16 6 -32 3 -35 -3 -2 -5 -21 -5 -40 0
-33 -8 -42 -33 -36 -27 5 -73 5 -96 -1 -15 -4 -32 -3 -40 1 -7 5 -21 4 -31 -1
-12 -6 -18 -6 -18 0 0 7 -8 7 -22 2 -13 -5 -32 -5 -43 -1 -11 4 -28 3 -37 -2
-11 -5 -18 -5 -18 0 0 11 -48 3 -56 -10 -3 -5 -5 -43 -4 -86 2 -107 2 -106 0
-207 -1 -49 -6 -93 -11 -96 -6 -3 -30 -3 -54 1 -24 4 -51 3 -59 -2 -10 -6 -16
-5 -16 2 0 7 -6 8 -18 2 -9 -5 -26 -6 -37 -2 -11 4 -29 4 -41 0 -11 -5 -27 -4
-34 0 -8 5 -18 6 -23 3 -5 -3 -31 -5 -58 -4 l-49 1 2 -398 3 -397 46 -5 c25
-3 56 -3 70 0 13 4 36 3 52 -1 17 -5 27 -4 27 3 0 7 4 7 13 0 7 -6 18 -7 26
-3 8 5 25 6 40 2 14 -5 37 -5 51 -1 47 13 67 -3 68 -55 1 -25 4 -50 7 -55 3
-5 1 -11 -4 -14 -5 -3 -5 -21 -1 -41 4 -19 4 -35 0 -35 -4 0 -4 -18 0 -40 4
-22 3 -43 -1 -46 -5 -3 -7 -10 -3 -15 3 -6 6 -33 6 -60 -1 -30 3 -47 9 -43 5
3 74 5 152 4 179 -2 170 -2 182 0 28 6 52 -2 53 -17 3 -29 1 -87 -3 -91 -2 -2
1 -17 5 -33 5 -16 5 -31 0 -34 -5 -3 -5 -18 0 -34 4 -16 7 -31 5 -33 -2 -2 -4
-26 -4 -53 -1 -60 -2 -84 -4 -153 -1 -30 1 -59 5 -65 4 -6 4 -15 1 -20 -3 -6
-5 -37 -4 -71 1 -34 2 -68 1 -76 0 -8 0 -36 -1 -63 -1 -26 -5 -50 -10 -52 -12
-8 -357 -8 -368 0 -5 3 -12 1 -16 -5 -5 -8 -10 -194 -5 -210 4 -15 4 -120 0
-120 -3 0 -5 -27 -5 -60 0 -33 4 -60 8 -60 5 0 6 -4 3 -9 -5 -7 -9 -196 -5
-251 0 -8 0 -46 0 -85 -1 -38 -1 -79 -1 -90 0 -11 0 -66 0 -123 0 -56 2 -107
5 -112 3 -6 3 -10 -2 -10 -4 0 -8 -27 -8 -60 0 -33 3 -60 7 -60 3 0 4 -8 2
-17 -10 -39 -9 -283 1 -283 6 0 3 -5 -5 -10 -11 -7 -11 -10 -2 -10 7 0 11 -4
8 -9 -6 -8 -10 -225 -6 -246 1 -5 2 -14 0 -20 -6 -34 -1 -137 8 -148 11 -13
101 -15 122 -2 5 3 10 3 10 -2 0 -4 27 -8 60 -8 33 0 60 4 60 8 0 5 5 5 11 1
6 -4 37 -7 68 -8 l56 -1 2 -40 c3 -51 3 -73 0 -163 -1 -41 1 -79 5 -85 4 -6 4
-16 0 -21 -8 -14 -6 -92 4 -107 4 -7 3 -10 -2 -7 -5 4 -9 -32 -9 -82 0 -50 4
-86 9 -83 5 4 6 1 1 -6 -10 -17 -13 -131 -2 -138 4 -2 3 -10 -2 -17 -8 -9 -7
-18 3 -31 11 -15 28 -18 113 -18 54 0 105 3 111 7 7 4 17 4 24 0 7 -4 42 -7
79 -7 l66 1 -1 -44 c-1 -24 2 -44 6 -44 3 0 3 -13 -2 -30 -5 -18 -5 -32 1 -36
6 -3 6 -11 2 -17 -10 -14 -9 -209 1 -225 4 -7 17 -8 35 -2 16 4 31 6 34 4 3
-4 91 -6 147 -4 8 1 33 1 55 1 22 0 47 0 55 0 8 0 56 -1 106 -2 50 -1 96 1
102 5 6 3 13 2 17 -4 4 -6 10 -8 14 -5 10 5 63 6 218 3 62 -2 113 1 113 5 0 5
5 5 11 2 5 -4 103 -6 217 -5 114 1 216 1 227 0 11 -1 27 -1 35 -1 8 0 78 0
155 0 77 -1 147 0 155 0 8 1 31 1 50 0 19 -1 41 -1 48 0 6 1 19 1 27 1 8 0 23
0 33 0 9 0 33 0 52 -1 54 -2 54 -2 70 2 22 6 30 21 20 39 -5 9 -5 22 0 30 5 8
5 21 0 30 -5 9 -5 22 0 30 5 8 5 21 0 30 -5 9 -5 22 0 30 5 8 5 21 1 29 -5 9
-5 25 -1 36 4 11 4 32 -1 47 -4 15 -4 30 1 33 5 3 5 19 0 35 l-9 30 70 -1 c38
-1 72 1 75 4 3 3 19 1 35 -3 18 -5 29 -5 29 1 0 6 8 5 20 -1 11 -6 20 -7 20
-3 0 4 21 7 47 6 27 -1 75 -2 108 -2 113 -1 139 -2 147 -7 4 -3 8 -1 8 5 0 9
37 7 67 -4 7 -2 15 0 18 5 3 5 18 5 34 0 15 -4 34 -4 41 0 7 4 25 4 40 0 15
-4 32 -5 38 -1 5 3 10 39 11 79 0 41 3 78 6 82 3 5 1 11 -5 15 -6 4 -8 11 -4
16 5 9 9 151 4 174 -1 6 -2 18 -1 28 1 15 5 16 21 7 11 -6 25 -8 31 -4 6 3 40
6 75 5 35 -1 70 -2 77 -2 6 0 26 0 42 0 61 1 70 1 90 1 11 -1 26 -1 33 -1 6 0
46 0 87 0 41 0 82 0 90 0 8 1 26 1 40 1 14 0 32 0 40 0 8 0 26 0 40 0 14 0 33
0 43 0 9 0 33 0 54 0 l36 0 4 51 c1 28 0 53 -3 55 -4 2 -4 19 0 37 5 18 5 41
1 52 -4 11 -4 31 0 45 3 14 4 41 0 60 -3 19 -3 49 0 65 4 26 10 30 40 32 55 3
71 3 128 2 29 -1 56 1 58 4 3 3 19 1 35 -3 16 -5 31 -5 34 -1 2 4 24 5 48 1
24 -3 52 -3 63 0 10 4 28 4 40 0 11 -5 27 -5 34 0 7 4 23 5 34 0 11 -4 33 -4
48 0 14 5 29 6 32 2 8 -7 102 -6 114 2 4 2 14 1 22 -4 8 -5 22 -5 32 1 12 6
18 6 18 0 0 -7 8 -7 24 -1 13 5 26 6 29 4 8 -9 70 -10 98 -3 15 4 32 3 40 -1
7 -5 20 -5 29 0 11 6 21 5 27 -1 7 -7 13 -7 17 -1 3 5 22 6 45 2 22 -4 45 -4
51 0 19 12 62 -1 56 -16 -3 -8 -1 -14 4 -14 5 0 5 -13 0 -30 -5 -19 -5 -30 1
-30 6 0 6 -6 0 -18 -5 -10 -6 -24 -1 -32 5 -8 5 -21 2 -29 -7 -14 -8 -37 -3
-51 5 -13 5 -100 1 -100 -9 0 1 -70 11 -76 13 -8 89 -11 89 -3 0 4 15 4 33 0
17 -4 46 -4 62 -1 17 3 49 3 72 -1 25 -3 47 -1 53 5 7 7 10 6 10 -2 0 -9 5
-10 19 -3 13 7 23 7 33 -2 19 -15 29 -55 17 -63 -5 -3 -5 -13 1 -24 6 -11 6
-21 1 -25 -6 -3 -6 -17 -1 -35 5 -17 5 -30 1 -30 -7 0 -5 -86 4 -107 2 -7 0
-13 -5 -13 -6 0 -6 -9 0 -25 7 -18 6 -25 -2 -25 -9 0 -9 -3 -1 -11 6 -6 9 -17
7 -24 -4 -9 8 -14 35 -17 23 -2 41 -1 41 2 0 3 36 3 80 0 45 -3 89 -2 98 1 9
4 26 3 37 -1 11 -4 29 -4 39 0 11 3 30 5 42 2 18 -3 22 -10 20 -31 -1 -14 1
-36 6 -48 4 -13 4 -23 0 -23 -4 0 -8 -9 -8 -20 0 -11 3 -20 6 -20 4 0 4 -22 0
-50 -3 -27 -3 -55 1 -62 4 -6 3 -20 -2 -29 -5 -10 -6 -20 -1 -23 4 -2 7 -25 5
-50 -3 -45 -2 -46 30 -47 17 -1 36 -1 40 0 18 3 284 4 337 1 19 -1 41 -2 48
-2 18 1 280 1 295 0 6 0 17 1 22 2 6 1 18 2 28 1 16 -1 17 -18 17 -201 l0
-200 588 0 c464 0 589 3 590 13 1 11 2 188 1 227 0 8 1 38 1 65 1 28 1 55 0
60 -7 31 4 37 60 34 31 -1 21 -1 170 0 69 0 133 0 143 0 53 0 290 0 305 0 9 1
40 1 68 1 44 -1 52 2 57 20 3 11 1 22 -4 25 -4 3 -4 16 0 28 5 12 5 31 1 43
-5 11 -4 27 0 34 5 8 5 21 0 30 -5 9 -5 22 0 30 5 8 5 21 0 30 -5 9 -5 22 0
30 5 8 5 21 0 30 -5 9 -5 22 0 30 5 8 5 21 0 31 -13 23 10 41 52 39 18 0 44 0
58 1 14 0 32 0 40 0 8 -1 26 -1 40 0 14 0 31 0 38 0 18 -1 40 -2 111 -1 62 0
63 1 58 25 -2 14 -1 28 4 31 4 2 5 14 0 26 -4 12 -5 37 -1 55 5 19 4 33 -1 33
-6 0 -6 7 0 18 6 11 6 24 0 34 -6 10 -6 19 0 23 7 4 7 15 1 31 -6 14 -7 23 -2
21 4 -3 6 20 5 50 -2 50 -1 55 17 50 11 -3 22 -2 25 3 2 4 19 5 37 3 63 -8 98
-8 98 0 0 4 5 5 10 2 11 -7 50 -7 143 -2 26 1 47 -2 47 -6 0 -5 4 -6 9 -3 13
8 19 52 10 67 -4 7 -5 18 -1 23 7 12 5 116 -2 124 -3 2 -1 13 4 23 7 11 7 20
0 24 -6 3 -6 15 0 30 5 14 5 27 0 30 -5 3 -5 18 -1 33 4 15 6 33 3 41 -3 8 1
12 9 9 8 -3 26 -2 40 2 15 5 32 4 40 0 7 -5 21 -4 31 1 10 5 18 6 18 2 0 -4
24 -7 52 -5 29 1 63 2 76 2 12 0 29 0 37 0 8 0 23 0 33 0 9 0 31 0 47 1 17 0
36 0 43 0 6 -1 18 -1 25 -2 6 0 26 0 42 0 17 1 44 0 60 -2 17 -1 42 1 56 4 15
4 32 3 40 -1 7 -5 21 -4 31 1 12 6 18 6 18 0 0 -7 8 -7 23 -2 13 5 30 6 37 1
7 -4 25 -4 41 0 15 5 30 6 32 3 8 -8 70 -9 98 -2 15 4 32 3 40 -1 7 -5 20 -5
29 0 11 6 21 5 27 -1 6 -6 13 -7 16 -2 3 5 28 7 55 3 27 -3 60 -3 74 1 14 4
32 3 39 -1 7 -5 21 -4 31 1 12 6 18 6 18 0 0 -7 8 -7 24 -1 13 5 26 6 29 4 8
-9 70 -10 98 -3 15 4 32 3 40 -1 7 -5 21 -4 31 1 12 6 18 6 18 0 0 -6 11 -6
28 -2 15 5 37 5 49 0 21 -8 22 -14 23 -136 0 -70 0 -135 1 -143 0 -8 -2 -32
-3 -52 -2 -21 0 -38 4 -38 4 0 5 -7 2 -15 -6 -14 20 -22 51 -15 22 4 157 2
162 -3 3 -3 15 -2 27 2 11 5 30 5 41 1 11 -4 29 -4 40 0 11 4 29 4 40 0 11 -4
31 -4 45 0 14 4 35 3 48 -1 13 -5 22 -4 22 1 0 6 9 6 23 1 12 -4 33 -5 47 -1
14 4 34 3 46 -1 11 -4 27 -4 34 1 7 5 23 4 36 0 12 -5 25 -6 28 -3 3 3 28 5
56 4 l50 -1 0 199 c0 212 0 214 -50 201 -14 -4 -37 -3 -52 1 -15 4 -30 4 -33
0 -2 -4 -24 -5 -49 -1 -24 4 -52 3 -60 -2 -10 -6 -16 -5 -16 2 0 7 -6 8 -17 2
-10 -5 -29 -6 -43 -2 -14 4 -33 3 -42 -2 -12 -6 -18 -5 -18 2 0 6 -4 9 -9 5
-6 -3 -10 16 -9 44 0 27 -3 55 -7 60 -3 6 -2 11 3 11 5 0 6 17 2 40 -4 22 -3
43 1 46 5 3 7 9 4 15 -5 7 -7 64 -5 143 1 29 -15 40 -57 37 -49 -3 -51 -3 -95
1 -21 3 -38 1 -38 -2 0 -4 -18 -4 -39 0 -22 4 -45 3 -52 -1 -8 -4 -19 -3 -25
2 -8 7 -14 7 -18 0 -4 -6 -16 -7 -29 -2 -12 4 -28 6 -34 4 -9 -3 -12 10 -11
49 0 29 0 58 -2 63 -1 6 -2 15 0 20 5 27 2 154 -4 164 -4 6 -3 11 1 11 10 0 8
63 -2 79 -3 6 -11 9 -16 6 -5 -4 -9 -2 -9 4 0 5 -10 8 -22 5 -25 -5 -57 -5
-129 -3 -25 1 -51 -1 -57 -5 -6 -3 -13 -2 -17 4 -4 6 -13 7 -23 2 -9 -5 -28
-6 -42 -2 -14 4 -32 3 -41 -1 -30 -15 -37 12 -35 139 0 68 -2 126 -7 129 -4 2
-2 13 3 24 8 13 7 19 0 19 -6 0 -8 5 -5 11 13 20 12 59 -1 70 -14 11 -120 16
-130 6 -3 -3 -19 -1 -35 3 -18 5 -29 5 -29 -1 0 -6 -8 -5 -20 1 -11 6 -20 7
-20 2 0 -5 -21 -6 -48 -2 -26 3 -59 3 -72 0 -14 -4 -37 -3 -52 1 -17 5 -28 4
-28 -2 0 -6 -8 -5 -20 1 -11 6 -20 7 -20 2 0 -5 -22 -6 -48 -2 -27 3 -60 3
-74 -1 -14 -4 -31 -3 -38 1 -7 4 -24 5 -38 1 -14 -4 -47 -4 -72 -1 -26 3 -56
3 -66 -1 -11 -3 -29 -3 -41 2 -12 5 -25 4 -28 -1 -3 -5 -18 -5 -33 -1 -15 5
-36 5 -47 1 -11 -4 -29 -4 -40 0 -20 6 -85 4 -92 -4 -3 -2 -18 0 -34 4 -18 5
-29 5 -29 -1 0 -6 -8 -5 -20 1 -11 6 -20 7 -20 2 0 -5 -21 -6 -48 -2 -26 3
-59 3 -72 0 -14 -4 -37 -3 -52 1 -17 5 -28 4 -28 -2 0 -6 -8 -5 -20 1 -11 6
-20 7 -20 2 0 -5 -22 -6 -48 -2 -27 3 -60 3 -74 -1 -14 -4 -31 -3 -38 1 -7 4
-24 5 -38 1 -14 -4 -47 -4 -72 -1 -26 3 -56 3 -66 -1 -11 -3 -29 -3 -41 2 -12
5 -25 4 -28 -1 -3 -5 -18 -5 -34 0 -16 4 -31 7 -33 5 -9 -9 -58 -13 -63 -5
-12 19 -30 -2 -30 -35 0 -19 2 -35 5 -35 7 0 4 -69 -3 -76 -3 -3 -2 -17 3 -30
6 -14 6 -26 0 -29 -5 -3 -6 -15 -1 -28 5 -12 5 -31 1 -42 -4 -11 -4 -32 1 -47
4 -15 4 -30 -1 -33 -5 -3 -6 -13 -3 -21 8 -21 -16 -35 -38 -24 -9 5 -19 7 -21
4 -5 -5 -42 -6 -119 -3 -25 1 -51 -1 -57 -5 -6 -3 -13 -2 -17 4 -4 6 -12 7
-24 1 -9 -5 -23 -6 -30 -2 -7 5 -28 5 -47 1 -19 -4 -35 -5 -35 -1 -1 3 -5 -10
-8 -29 -4 -19 -4 -48 -1 -63 3 -15 3 -64 0 -108 -3 -44 -3 -87 1 -96 3 -8 3
-34 0 -57 -6 -38 -8 -41 -37 -42 -18 -1 -39 -4 -48 -7 -9 -4 -16 -2 -16 4 0 6
-7 6 -17 1 -17 -8 -34 -8 -78 1 -11 2 -31 1 -45 -3 -14 -4 -34 -4 -45 0 -11 4
-25 3 -32 -2 -7 -5 -13 -5 -17 0 -7 11 -54 4 -62 -10 -8 -12 -7 -205 1 -218 3
-5 3 -10 -2 -10 -7 0 -9 -45 -3 -110 4 -45 1 -49 -39 -48 -22 0 -44 -3 -50 -6
-6 -4 -11 -2 -11 4 0 7 -6 8 -18 1 -10 -5 -24 -6 -31 -1 -8 4 -25 5 -40 1 -28
-7 -90 -6 -98 3 -3 2 -16 1 -29 -4 -16 -6 -24 -6 -24 1 0 6 -6 7 -16 1 -8 -5
-35 -6 -60 -2 -24 4 -44 3 -44 -1 0 -5 -10 -5 -22 0 -13 4 -34 5 -48 1 -14 -4
-37 -3 -52 1 -15 4 -30 4 -33 0 -2 -4 -24 -5 -49 -1 -24 4 -52 2 -62 -3 -12
-7 -15 -6 -10 2 5 8 0 8 -18 2 -17 -7 -27 -6 -34 2 -10 12 -16 52 -12 72 4 23
1 95 -5 105 -3 5 -3 10 2 10 9 0 9 167 0 176 -3 3 -3 12 0 20 5 14 -17 19 -67
14 -28 -3 -53 -2 -90 3 -14 2 -33 -1 -42 -5 -11 -5 -18 -5 -18 1 0 5 -14 6
-34 1 -19 -4 -38 -5 -41 -2 -3 3 -24 5 -48 4 -46 -2 -78 10 -58 23 9 5 9 10 0
21 -6 8 -8 14 -3 14 10 0 10 222 0 239 -4 6 -4 11 1 11 7 0 8 18 4 76 -1 14
-56 23 -73 13 -7 -4 -17 -4 -23 1 -6 5 -16 5 -24 1 -7 -4 -30 -5 -52 -1 -22 4
-42 4 -45 -1 -2 -4 -15 -5 -27 0 -12 4 -33 5 -47 1 -14 -4 -37 -3 -52 1 -16 4
-30 3 -34 -2 -8 -13 -26 0 -21 15 3 7 1 19 -3 26 -5 8 -4 22 1 31 5 11 5 20 0
24 -6 3 -6 17 -1 35 5 17 5 30 0 30 -5 0 -5 13 0 30 5 19 5 30 -1 30 -6 0 -8
4 -5 9 11 17 10 151 -1 162 -11 11 -75 20 -68 9 2 -3 -22 -4 -53 -3 -119 5
-160 5 -168 1 -5 -3 -18 -2 -29 2 -11 4 -30 4 -42 -1 -27 -10 -33 5 -29 78 1
29 -1 50 -6 47 -4 -3 -5 2 -1 12 9 24 10 155 1 182 -5 15 -4 21 2 17 7 -4 7 2
0 19 -6 17 -6 26 3 29 23 9 -37 24 -68 17 -16 -3 -45 -3 -63 1 -18 3 -34 3
-37 0 -2 -4 -26 -5 -52 -1 -27 3 -59 3 -73 0 -13 -3 -43 -3 -65 0 l-40 5 0 65
c-1 36 -4 71 -8 78 -5 6 -4 12 0 12 10 0 8 94 -3 111 -4 7 -3 10 4 5 12 -7 11
32 -2 52 -4 7 -3 12 1 12 5 0 8 12 7 28 -1 32 -4 33 -229 31 -138 -1 -799 0
-825 1 -19 1 -42 2 -50 2 -13 -1 -153 -1 -460 -1 -36 0 -149 0 -252 0 l-187
-1 0 -27 c0 -16 -2 -65 -3 -111 -2 -45 1 -82 5 -82 5 0 5 -5 2 -10 -4 -6 -6
-44 -6 -85 0 -41 -4 -77 -9 -80 -5 -3 -29 -5 -52 -5 -53 1 -55 1 -203 1 -66 0
-124 0 -130 0 -5 0 -48 0 -95 0 -47 0 -96 -1 -110 -1 -14 -1 -65 -2 -114 -3
l-89 -2 -1 -195 c-1 -194 -1 -195 -23 -195 -12 0 -24 -3 -27 -6 -3 -3 -28 -3
-55 1 -27 3 -57 3 -67 -1 -11 -3 -29 -3 -41 2 -12 5 -25 4 -28 -1 -3 -5 -18
-5 -33 -1 -15 5 -36 5 -47 1 -11 -4 -29 -4 -40 0 -20 6 -85 4 -92 -4 -3 -2
-18 0 -34 4 -18 5 -29 5 -29 -1 0 -6 -8 -5 -20 1 -11 6 -20 7 -20 2 0 -5 -21
-6 -48 -2 -26 3 -59 3 -72 0 -14 -4 -37 -3 -52 1 -17 5 -28 4 -28 -2 0 -6 -8
-5 -20 1 -11 6 -20 7 -20 2 0 -5 -22 -6 -48 -2 -27 3 -60 3 -74 -1 -14 -4 -31
-3 -38 1 -7 4 -25 4 -40 0 -15 -4 -33 -4 -40 0 -7 4 -24 4 -39 1 -14 -4 -43
-4 -63 -1 -25 5 -38 4 -38 -3 0 -8 -4 -7 -11 0 -6 6 -10 30 -7 52 2 23 0 41
-4 41 -3 0 -3 14 2 30 5 18 5 30 0 30 -6 0 -5 11 0 26 7 17 7 32 0 44 -7 13
-7 21 0 25 6 4 7 13 1 24 -6 10 -6 23 -1 31 5 8 5 21 0 30 -5 9 -5 22 -1 29 5
7 6 21 4 31 -4 16 0 17 36 10 23 -4 44 -3 47 1 3 5 10 7 15 3 10 -6 290 -6
296 0 7 7 6 153 -1 164 -4 7 -3 12 2 12 9 0 10 36 1 45 -3 2 -2 29 1 60 3 30
3 55 -1 55 -9 0 1 41 14 57 5 7 12 11 16 8 9 -5 60 -6 236 -5 l140 1 -3 42
c-1 23 -3 48 -2 55 0 14 0 26 0 82 0 22 0 47 0 55 0 8 0 22 0 30 0 8 0 22 0
30 0 21 0 45 1 78 l1 27 167 1 c91 1 181 1 199 1 31 0 32 1 33 41 1 23 0 47
-1 52 -1 6 -1 33 0 60 1 28 1 61 0 75 -1 14 -1 32 -1 40 0 8 1 37 1 64 0 67 7
73 80 66 33 -3 63 -4 65 -2 2 2 60 4 128 3 l124 -2 2 67 c1 36 4 70 7 75 3 5
0 9 -6 9 -6 0 -9 4 -6 8 6 9 7 61 6 182 -1 47 0 90 0 95 4 28 -1 178 -6 186
-3 5 -2 9 3 9 6 0 9 98 3 120 -1 3 -1 35 0 71 5 231 4 289 -3 289 -5 0 -6 4
-3 8 6 9 7 61 6 182 -1 47 0 90 0 95 4 28 -1 178 -6 186 -3 5 -2 9 3 9 6 0 9
102 2 120 -1 3 -1 9 0 13 1 4 1 88 1 185 -1 219 0 253 6 264 3 4 0 8 -6 8 -6
0 -9 4 -6 9 5 7 8 149 4 193 -1 12 -13 17 -46 20 -24 2 -45 1 -47 -3 -2 -3
-27 -3 -55 1 -27 4 -50 3 -50 -2 0 -5 -9 -4 -20 2 -11 6 -20 7 -20 3 0 -4 -36
-7 -81 -5 -44 2 -78 6 -75 9 3 4 1 12 -5 19 -6 8 -6 14 0 18 5 4 6 18 2 34 -4
15 -6 38 -4 52 1 14 3 48 3 75 0 87 0 106 1 113 1 4 1 23 0 43 l-1 37 -107 2
c-103 1 -116 1 -145 -1 -7 0 -43 0 -81 1 -66 3 -67 3 -65 29 1 15 -1 31 -4 37
-4 5 -3 16 2 24 4 7 4 24 -1 37 -5 12 -5 23 -1 23 8 0 7 214 -2 236 -5 12 -93
14 -601 14 -469 0 -595 -3 -596 -12 -2 -21 0 -71 4 -106 2 -18 0 -35 -5 -38
-4 -3 -4 -14 2 -24 7 -13 7 -21 0 -25 -7 -5 -8 -11 -1 -19 5 -6 7 -17 3 -23
-4 -7 -6 -28 -5 -47 2 -20 4 -52 6 -71 l2 -35 -60 0 c-115 0 -128 1 -135 5 -3
2 -12 0 -20 -5 -8 -5 -21 -5 -30 0 -9 5 -22 5 -29 1 -7 -5 -29 -5 -50 -1 -21
4 -47 3 -59 -1 -22 -8 -24 -2 -22 74 1 6 -1 29 -2 50 -2 21 0 41 4 43 5 3 4
13 -1 23 -6 10 -6 23 -1 31 5 8 5 21 0 30 -5 9 -5 22 0 30 5 8 5 21 -1 31 -6
11 -5 20 1 24 6 3 6 15 0 29 -5 13 -6 27 -3 30 4 3 -175 6 -396 6 l-403 0 4
-30z"/>
</g>
</svg>
