<svg width="142" height="146" viewBox="0 0 142 146" fill="none" xmlns="http://www.w3.org/2000/svg">
<path d="M8 54C4.68629 54 2 56.6863 2 60L2 86C2 89.3137 4.68629 92 8 92L41 92C44.3137 92 47 100.686 47 104L47 137C47 140.314 49.6863 143 53 143L91 146C94.3137 146 97 143.314 97 140L97 107C97 103.686 99.6863 101 103 101L136 101C139.314 101 142 98.3137 142 95L142 51C142 47.6863 139.314 45 136 45L103 45C99.6863 45 97 42.3137 97 39L97 6C97 2.68629 94.3137 1.10083e-06 91 1.06131e-06L53 3C49.6863 3 47 5.68629 47 9L47 42C47 45.3137 44.3137 54 41 54L8 54Z" fill="black" fill-opacity="0.25"/>
<mask id="path-2-inside-1_12_62" fill="white">
<path d="M6 54C2.68629 54 1.02928e-06 56.6863 9.89765e-07 60L6.79718e-07 86C6.40203e-07 89.3137 2.68629 92 6 92L36 95C39.3137 95 42 97.6863 42 101L42 134C42 137.314 44.6863 140 48 140L86 143C89.3137 143 92 140.314 92 137L92 104C92 100.686 94.6863 98 98 98L131 98C134.314 98 137 95.3137 137 92L137 54C137 50.6863 134.314 48 131 48L98 48C94.6863 48 92 45.3137 92 42L92 9C92 5.68629 89.3137 3 86 3L48 6C44.6863 6 42 8.68629 42 12L42 45C42 48.3137 39.3137 51 36 51L6 54Z"/>
<path d="M17 73.5L34.25 64.8087L34.25 82.1913L17 73.5Z"/>
<path d="M123 73.5L102.75 85.1913L102.75 61.8087L123 73.5Z"/>
<path d="M79.1327 36.3088L55.75 39.3088L67.4413 16.0588L79.1327 36.3088Z"/>
<path d="M55.75 103.809L79.1327 106.809L67.4413 127.059L55.75 103.809Z"/>
<path d="M67 61C73.6274 61 79 66.3726 79 73C79 79.6274 73.6274 85 67 85C60.3726 85 55 79.6274 55 73C55 66.3726 60.3726 61 67 61Z"/>
</mask>
<path d="M43 58L43 57L42.9484 57L42.8971 57.0053L43 58ZM55 14L55 15L55.0623 15L55.124 14.9923L55 14ZM79 11L79 10L78.9377 10L78.876 10.0077L79 11ZM79 135L78.876 135.992L78.9377 136L79 136L79 135ZM55 132L55.124 131.008L55.0623 131L55 131L55 132ZM43 88L42.8971 88.9947L42.9484 89L43 89L43 88ZM14 61L14 62L14.0516 62L14.1029 61.9947L14 61ZM14 85L14.1029 84.0053L14.0516 84L14 84L14 85ZM9 79L9 67L7 67L7 79L9 79ZM43.1029 87.0053L14.1029 84.0053L13.8971 85.9947L42.8971 88.9947L43.1029 87.0053ZM50 126L50 94L48 94L48 126L50 126ZM79.124 134.008L55.124 131.008L54.876 132.992L78.876 135.992L79.124 134.008ZM84 97L84 129L86 129L86 97L84 97ZM123 90L91 90L91 92L123 92L123 90ZM128 61L128 85L130 85L130 61L128 61ZM91 56L123 56L123 54L91 54L91 56ZM84 17L84 49L86 49L86 17L84 17ZM55.124 14.9923L79.124 11.9923L78.876 10.0077L54.876 13.0077L55.124 14.9923ZM50 52L50 20L48 20L48 52L50 52ZM14.1029 61.9947L43.1029 58.9947L42.8971 57.0053L13.8971 60.0053L14.1029 61.9947ZM48 52C48 54.7614 45.7614 57 43 57L43 59C46.866 59 50 55.866 50 52L48 52ZM55 13C51.134 13 48 16.134 48 20L50 20C50 17.2386 52.2386 15 55 15L55 13ZM86 17C86 13.134 82.866 10 79 10L79 12C81.7614 12 84 14.2386 84 17L86 17ZM91 54C88.2386 54 86 51.7614 86 49L84 49C84 52.866 87.134 56 91 56L91 54ZM130 61C130 57.134 126.866 54 123 54L123 56C125.761 56 128 58.2386 128 61L130 61ZM123 92C126.866 92 130 88.866 130 85L128 85C128 87.7614 125.761 90 123 90L123 92ZM86 97C86 94.2386 88.2386 92 91 92L91 90C87.134 90 84 93.134 84 97L86 97ZM79 136C82.866 136 86 132.866 86 129L84 129C84 131.761 81.7614 134 79 134L79 136ZM48 126C48 129.866 51.134 133 55 133L55 131C52.2386 131 50 128.761 50 126L48 126ZM43 89C45.7614 89 48 91.2386 48 94L50 94C50 90.134 46.866 87 43 87L43 89ZM9 67C9 64.2386 11.2386 62 14 62L14 60C10.134 60 7 63.134 7 67L9 67ZM7 79C7 82.866 10.134 86 14 86L14 84C11.2386 84 9 81.7614 9 79L7 79ZM42 45L44 45L44 45L42 45ZM36 51L36 49L35.9002 49L35.801 49.0099L36 51ZM48 6L48 8L48.0788 8L48.1574 7.9938L48 6ZM42 12L40 12L40 12L42 12ZM86 3L86 1L85.9212 1L85.8426 1.0062L86 3ZM86 143L85.8426 144.994L85.9212 145L86 145L86 143ZM42 134L44 134L44 134L42 134ZM48 140L48.1574 138.006L48.0788 138L48 138L48 140ZM36 95L35.801 96.9901L35.9002 97L36 97L36 95ZM42 101L40 101L40 101L42 101ZM6 54L6 56L6.09975 56L6.19901 55.9901L6 54ZM6 92L6.19901 90.0099L6.09975 90L6 90L6 92ZM17 73.5L16.1001 71.7139L12.5552 73.5L16.1001 75.2861L17 73.5ZM34.25 64.8087L36.25 64.8087L36.25 61.5614L33.3501 63.0226L34.25 64.8087ZM34.25 82.1913L33.3501 83.9774L36.25 85.4386L36.25 82.1913L34.25 82.1913ZM123 73.5L124 75.2321L127 73.5L124 71.768L123 73.5ZM102.75 85.1913L100.75 85.1913L100.75 88.6554L103.75 86.9234L102.75 85.1913ZM102.75 61.8087L103.75 60.0766L100.75 58.3446L100.75 61.8087L102.75 61.8087ZM79.1327 36.3088L79.3872 38.2925L82.3667 37.9102L80.8647 35.3088L79.1327 36.3088ZM55.75 39.3088L53.9632 38.4103L52.2731 41.7712L56.0045 41.2925L55.75 39.3088ZM67.4413 16.0588L69.1734 15.0588L67.3199 11.8484L65.6545 15.1603L67.4413 16.0588ZM55.75 103.809L56.0045 101.825L52.2731 101.346L53.9632 104.707L55.75 103.809ZM79.1327 106.809L80.8647 107.809L82.3667 105.207L79.3872 104.825L79.1327 106.809ZM67.4413 127.059L65.6545 127.957L67.3199 131.269L69.1734 128.059L67.4413 127.059ZM2 86L2 60L-2 60L-2 86L2 86ZM36.199 93.0099L6.19901 90.0099L5.80099 93.9901L35.801 96.9901L36.199 93.0099ZM44 134L44 101L40 101L40 134L44 134ZM86.1574 141.006L48.1574 138.006L47.8426 141.994L85.8426 144.994L86.1574 141.006ZM90 104L90 137L94 137L94 104L90 104ZM131 96L98 96L98 100L131 100L131 96ZM135 54L135 92L139 92L139 54L135 54ZM98 50L131 50L131 46L98 46L98 50ZM90 9L90 42L94 42L94 9L90 9ZM48.1574 7.9938L86.1574 4.9938L85.8426 1.0062L47.8426 4.0062L48.1574 7.9938ZM44 45L44 12L40 12L40 45L44 45ZM6.19901 55.9901L36.199 52.9901L35.801 49.0099L5.80099 52.0099L6.19901 55.9901ZM40 45C40 47.2091 38.2091 49 36 49L36 53C40.4183 53 44 49.4183 44 45L40 45ZM48 4C43.5817 4 40 7.58172 40 12L44 12C44 9.79086 45.7909 8 48 8L48 4ZM94 9C94 4.58172 90.4183 1 86 1L86 5C88.2091 5 90 6.79086 90 9L94 9ZM98 46C95.7909 46 94 44.2091 94 42L90 42C90 46.4183 93.5817 50 98 50L98 46ZM139 54C139 49.5817 135.418 46 131 46L131 50C133.209 50 135 51.7909 135 54L139 54ZM131 100C135.418 100 139 96.4183 139 92L135 92C135 94.2091 133.209 96 131 96L131 100ZM94 104C94 101.791 95.7909 100 98 100L98 96C93.5817 96 90 99.5817 90 104L94 104ZM86 145C90.4183 145 94 141.418 94 137L90 137C90 139.209 88.2091 141 86 141L86 145ZM40 134C40 138.418 43.5817 142 48 142L48 138C45.7909 138 44 136.209 44 134L40 134ZM36 97C38.2091 97 40 98.7909 40 101L44 101C44 96.5817 40.4183 93 36 93L36 97ZM2 60C2 57.7909 3.79086 56 6 56L6 52C1.58172 52 -2 55.5817 -2 60L2 60ZM-2 86C-2 90.4183 1.58172 94 6 94L6 90C3.79086 90 2 88.2091 2 86L-2 86ZM17.8999 75.2861L35.1499 66.5948L33.3501 63.0226L16.1001 71.7139L17.8999 75.2861ZM32.25 64.8087L32.25 82.1913L36.25 82.1913L36.25 64.8087L32.25 64.8087ZM35.1499 80.4052L17.8999 71.7139L16.1001 75.2861L33.3501 83.9774L35.1499 80.4052ZM122 71.768L101.75 83.4593L103.75 86.9234L124 75.2321L122 71.768ZM104.75 85.1913L104.75 61.8087L100.75 61.8087L100.75 85.1913L104.75 85.1913ZM101.75 63.5407L122 75.2321L124 71.768L103.75 60.0766L101.75 63.5407ZM78.8782 34.325L55.4955 37.325L56.0045 41.2925L79.3872 38.2925L78.8782 34.325ZM57.5368 40.2073L69.2282 16.9573L65.6545 15.1603L53.9632 38.4103L57.5368 40.2073ZM65.7093 17.0588L77.4006 37.3088L80.8647 35.3088L69.1734 15.0588L65.7093 17.0588ZM55.4955 105.792L78.8782 108.792L79.3872 104.825L56.0045 101.825L55.4955 105.792ZM77.4006 105.809L65.7093 126.059L69.1734 128.059L80.8647 107.809L77.4006 105.809ZM69.2282 126.16L57.5368 102.91L53.9632 104.707L65.6545 127.957L69.2282 126.16ZM67 63C72.5228 63 77 67.4772 77 73L81 73C81 65.268 74.732 59 67 59L67 63ZM77 73C77 78.5228 72.5228 83 67 83L67 87C74.732 87 81 80.732 81 73L77 73ZM67 83C61.4772 83 57 78.5228 57 73L53 73C53 80.732 59.268 87 67 87L67 83ZM57 73C57 67.4772 61.4772 63 67 63L67 59C59.268 59 53 65.268 53 73L57 73Z" fill="black" mask="url(#path-2-inside-1_12_62)"/>
</svg>
