<svg width="142" height="146" viewBox="0 0 142 146" fill="none" xmlns="http://www.w3.org/2000/svg">
<path d="M134 92C137.314 92 140 89.3137 140 86L140 60C140 56.6863 137.314 54 134 54L101 54C97.6863 54 95 45.3137 95 42L95 9C95 5.68629 92.3137 3 89 3L51 -3.89031e-06C47.6863 -3.89031e-06 45 2.68629 45 6L45 39C45 42.3137 42.3137 45 39 45L6 45C2.68629 45 -2.08443e-06 47.6863 -2.22928e-06 51L-4.15258e-06 95C-4.29743e-06 98.3137 2.68629 101 6 101L39 101C42.3137 101 45 103.686 45 107L45 140C45 143.314 47.6863 146 51 146L89 143C92.3137 143 95 140.314 95 137L95 104C95 100.686 97.6863 92 101 92L134 92Z" fill="black" fill-opacity="0.25"/>
<mask id="path-2-inside-1_12_59" fill="white">
<path d="M136 92C139.314 92 142 89.3137 142 86L142 60C142 56.6863 139.314 54 136 54L106 51C102.686 51 100 48.3137 100 45L100 12C100 8.68629 97.3137 6 94 6L56 3C52.6863 3 50 5.68629 50 9L50 42C50 45.3137 47.3137 48 44 48L11 48C7.68629 48 5 50.6863 5 54L5 92C5 95.3137 7.68629 98 11 98L44 98C47.3137 98 50 100.686 50 104L50 137C50 140.314 52.6863 143 56 143L94 140C97.3137 140 100 137.314 100 134L100 101C100 97.6863 102.686 95 106 95L136 92Z"/>
<path d="M125 72.5L107.75 81.1913L107.75 63.8087L125 72.5Z"/>
<path d="M19 72.5L39.25 60.8087L39.25 84.1913L19 72.5Z"/>
<path d="M62.8673 109.691L86.25 106.691L74.5586 129.941L62.8673 109.691Z"/>
<path d="M86.25 42.1913L62.8673 39.1913L74.5587 18.9413L86.25 42.1913Z"/>
<path d="M75 85C68.3726 85 63 79.6274 63 73C63 66.3726 68.3726 61 75 61C81.6274 61 87 66.3726 87 73C87 79.6274 81.6274 85 75 85Z"/>
</mask>
<path d="M99 88L99 89L99.0516 89L99.1029 88.9947L99 88ZM87 132L87 131L86.9377 131L86.876 131.008L87 132ZM63 135L63 136L63.0623 136L63.124 135.992L63 135ZM63 11L63.124 10.0077L63.0623 10L63 10L63 11ZM87 14L86.876 14.9923L86.9377 15L87 15L87 14ZM99 58L99.1029 57.0053L99.0516 57L99 57L99 58ZM128 85L128 84L127.948 84L127.897 84.0053L128 85ZM128 61L127.897 61.9947L127.948 62L128 62L128 61ZM133 67L133 79L135 79L135 67L133 67ZM98.8971 58.9947L127.897 61.9947L128.103 60.0053L99.1029 57.0053L98.8971 58.9947ZM92 20L92 52L94 52L94 20L92 20ZM62.876 11.9923L86.876 14.9923L87.124 13.0077L63.124 10.0077L62.876 11.9923ZM58 49L58 17L56 17L56 49L58 49ZM19 56L51 56L51 54L19 54L19 56ZM14 85L14 61L12 61L12 85L14 85ZM51 90L19 90L19 92L51 92L51 90ZM58 129L58 97L56 97L56 129L58 129ZM86.876 131.008L62.876 134.008L63.124 135.992L87.124 132.992L86.876 131.008ZM92 94L92 126L94 126L94 94L92 94ZM127.897 84.0053L98.8971 87.0053L99.1029 88.9947L128.103 85.9947L127.897 84.0053ZM94 94C94 91.2386 96.2386 89 99 89L99 87C95.134 87 92 90.134 92 94L94 94ZM87 133C90.866 133 94 129.866 94 126L92 126C92 128.761 89.7614 131 87 131L87 133ZM56 129C56 132.866 59.134 136 63 136L63 134C60.2386 134 58 131.761 58 129L56 129ZM51 92C53.7614 92 56 94.2386 56 97L58 97C58 93.134 54.866 90 51 90L51 92ZM12 85C12 88.866 15.134 92 19 92L19 90C16.2386 90 14 87.7614 14 85L12 85ZM19 54C15.134 54 12 57.134 12 61L14 61C14 58.2386 16.2386 56 19 56L19 54ZM56 49C56 51.7614 53.7614 54 51 54L51 56C54.866 56 58 52.866 58 49L56 49ZM63 10C59.134 9.99999 56 13.134 56 17L58 17C58 14.2386 60.2386 12 63 12L63 10ZM94 20C94 16.134 90.866 13 87 13L87 15C89.7614 15 92 17.2386 92 20L94 20ZM99 57C96.2386 57 94 54.7614 94 52L92 52C92 55.866 95.134 59 99 59L99 57ZM133 79C133 81.7614 130.761 84 128 84L128 86C131.866 86 135 82.866 135 79L133 79ZM135 67C135 63.134 131.866 60 128 60L128 62C130.761 62 133 64.2386 133 67L135 67ZM100 101L98 101L98 101L100 101ZM106 95L106 97L106.1 97L106.199 96.9901L106 95ZM94 140L94 138L93.9212 138L93.8426 138.006L94 140ZM100 134L102 134L102 134L100 134ZM56 143L56 145L56.0788 145L56.1574 144.994L56 143ZM56 3L56.1574 1.0062L56.0788 0.999996H56V3ZM100 12L98 12L98 12L100 12ZM94 6L93.8426 7.99379L93.9212 8L94 8V6ZM106 51L106.199 49.0099L106.1 49L106 49L106 51ZM100 45L102 45L102 45L100 45ZM136 92L136 90L135.9 90L135.801 90.0099L136 92ZM136 54L135.801 55.9901L135.9 56L136 56L136 54ZM125 72.5L125.9 74.2861L129.445 72.5L125.9 70.7139L125 72.5ZM107.75 81.1913L105.75 81.1913L105.75 84.4386L108.65 82.9774L107.75 81.1913ZM107.75 63.8087L108.65 62.0226L105.75 60.5614L105.75 63.8087L107.75 63.8087ZM19 72.5L18 70.7679L15 72.5L18 74.232L19 72.5ZM39.25 60.8087L41.25 60.8087L41.25 57.3446L38.25 59.0766L39.25 60.8087ZM39.25 84.1913L38.25 85.9234L41.25 87.6554L41.25 84.1913L39.25 84.1913ZM62.8673 109.691L62.6128 107.707L59.6333 108.09L61.1353 110.691L62.8673 109.691ZM86.25 106.691L88.0368 107.59L89.7269 104.229L85.9955 104.707L86.25 106.691ZM74.5586 129.941L72.8266 130.941L74.6801 134.152L76.3455 130.84L74.5586 129.941ZM86.25 42.1913L85.9955 44.1751L89.7269 44.6538L88.0368 41.2928L86.25 42.1913ZM62.8673 39.1913L61.1353 38.1913L59.6333 40.7928L62.6128 41.1751L62.8673 39.1913ZM74.5587 18.9413L76.3455 18.0428L74.6801 14.731L72.8266 17.9413L74.5587 18.9413ZM140 60L140 86L144 86L144 60L140 60ZM105.801 52.9901L135.801 55.9901L136.199 52.0099L106.199 49.0099L105.801 52.9901ZM98 12L98 45L102 45L102 12L98 12ZM55.8426 4.99379L93.8426 7.99379L94.1574 4.0062L56.1574 1.0062L55.8426 4.99379ZM52 42L52 9L48 9L48 42L52 42ZM11 50L44 50L44 46L11 46L11 50ZM7 92L7 54L3 54L3 92L7 92ZM44 96L11 96L11 100L44 100L44 96ZM52 137L52 104L48 104L48 137L52 137ZM93.8426 138.006L55.8426 141.006L56.1574 144.994L94.1574 141.994L93.8426 138.006ZM98 101L98 134L102 134L102 101L98 101ZM135.801 90.0099L105.801 93.0099L106.199 96.9901L136.199 93.9901L135.801 90.0099ZM102 101C102 98.7909 103.791 97 106 97L106 93C101.582 93 98 96.5817 98 101L102 101ZM94 142C98.4183 142 102 138.418 102 134L98 134C98 136.209 96.2091 138 94 138L94 142ZM48 137C48 141.418 51.5817 145 56 145L56 141C53.7909 141 52 139.209 52 137L48 137ZM44 100C46.2091 100 48 101.791 48 104L52 104C52 99.5817 48.4183 96 44 96L44 100ZM3 92C3 96.4183 6.58172 100 11 100L11 96C8.79086 96 7 94.2091 7 92L3 92ZM11 46C6.58172 46 3 49.5817 3 54L7 54C7 51.7909 8.79086 50 11 50L11 46ZM48 42C48 44.2091 46.2091 46 44 46L44 50C48.4183 50 52 46.4183 52 42L48 42ZM56 0.999996C51.5817 0.999996 48 4.58172 48 9L52 9C52 6.79086 53.7909 5 56 5V0.999996ZM102 12C102 7.58172 98.4183 4 94 4V8C96.2091 8 98 9.79086 98 12L102 12ZM106 49C103.791 49 102 47.2091 102 45L98 45C98 49.4183 101.582 53 106 53L106 49ZM140 86C140 88.2091 138.209 90 136 90L136 94C140.418 94 144 90.4183 144 86L140 86ZM144 60C144 55.5817 140.418 52 136 52L136 56C138.209 56 140 57.7909 140 60L144 60ZM124.1 70.7139L106.85 79.4052L108.65 82.9774L125.9 74.2861L124.1 70.7139ZM109.75 81.1913L109.75 63.8087L105.75 63.8087L105.75 81.1913L109.75 81.1913ZM106.85 65.5948L124.1 74.2861L125.9 70.7139L108.65 62.0226L106.85 65.5948ZM20 74.232L40.25 62.5407L38.25 59.0766L18 70.7679L20 74.232ZM37.25 60.8087L37.25 84.1913L41.25 84.1913L41.25 60.8087L37.25 60.8087ZM40.25 82.4593L20 70.7679L18 74.232L38.25 85.9234L40.25 82.4593ZM63.1218 111.675L86.5045 108.675L85.9955 104.707L62.6128 107.707L63.1218 111.675ZM84.4632 105.793L72.7718 129.043L76.3455 130.84L88.0368 107.59L84.4632 105.793ZM76.2907 128.941L64.5994 108.691L61.1353 110.691L72.8266 130.941L76.2907 128.941ZM86.5045 40.2076L63.1218 37.2076L62.6128 41.1751L85.9955 44.1751L86.5045 40.2076ZM64.5994 40.1913L76.2907 19.9413L72.8266 17.9413L61.1353 38.1913L64.5994 40.1913ZM72.7718 19.8398L84.4632 43.0898L88.0368 41.2928L76.3455 18.0428L72.7718 19.8398ZM75 83C69.4771 83 65 78.5228 65 73L61 73C61 80.732 67.268 87 75 87L75 83ZM65 73C65 67.4771 69.4771 63 75 63L75 59C67.268 59 61 65.268 61 73L65 73ZM75 63C80.5228 63 85 67.4771 85 73L89 73C89 65.268 82.732 59 75 59L75 63ZM85 73C85 78.5228 80.5228 83 75 83L75 87C82.732 87 89 80.732 89 73L85 73Z" fill="black" mask="url(#path-2-inside-1_12_59)"/>
</svg>
