<svg width="146" height="142" viewBox="0 0 146 142" fill="none" xmlns="http://www.w3.org/2000/svg">
<path d="M54 134C54 137.314 56.6863 140 60 140L86 140C89.3137 140 92 137.314 92 134L92 101C92 97.6863 100.686 95 104 95L137 95C140.314 95 143 92.3137 143 89L146 51C146 47.6863 143.314 45 140 45L107 45C103.686 45 101 42.3137 101 39L101 6C101 2.68629 98.3137 -4.16887e-06 95 -4.45856e-06L51 -8.30516e-06C47.6863 -8.59486e-06 45 2.68628 45 5.99999L45 39C45 42.3137 42.3137 45 39 45L6.00001 45C2.6863 45 8.07032e-06 47.6863 7.78063e-06 51L3 89C3 92.3137 5.6863 95 9 95L42 95C45.3137 95 54 97.6863 54 101L54 134Z" fill="black" fill-opacity="0.25"/>
<mask id="path-2-inside-1_12_67" fill="white">
<path d="M54 136C54 139.314 56.6863 142 60 142L86 142C89.3137 142 92 139.314 92 136L95 106C95 102.686 97.6863 100 101 100L134 100C137.314 100 140 97.3137 140 94L143 56C143 52.6863 140.314 50 137 50L104 50C100.686 50 98 47.3137 98 44L98 11C98 7.68629 95.3137 5 92 5L54 4.99999C50.6863 4.99999 48 7.68628 48 11L48 44C48 47.3137 45.3137 50 42 50L9.00001 50C5.6863 50 3.00001 52.6863 3.00001 56L6 94C6 97.3137 8.68629 100 12 100L45 100C48.3137 100 51 102.686 51 106L54 136Z"/>
<path d="M73.5 125L64.8087 107.75L82.1913 107.75L73.5 125Z"/>
<path d="M73.5 19L85.1914 39.25L61.8087 39.25L73.5 19Z"/>
<path d="M36.3088 62.8673L39.3088 86.25L16.0588 74.5586L36.3088 62.8673Z"/>
<path d="M103.809 86.25L106.809 62.8673L127.059 74.5587L103.809 86.25Z"/>
<path d="M61 75C61 68.3726 66.3726 63 73 63C79.6274 63 85 68.3726 85 75C85 81.6274 79.6274 87 73 87C66.3726 87 61 81.6274 61 75Z"/>
</mask>
<path d="M58 99L57 99L57 99.0516L57.0053 99.1029L58 99ZM14 87L15 87L15 86.9377L14.9923 86.876L14 87ZM11 63L10 63L10 63.0623L10.0077 63.124L11 63ZM135 63L135.992 63.124L136 63.0623L136 63L135 63ZM132 87L131.008 86.876L131 86.9377L131 87L132 87ZM88 99L88.9947 99.1029L89 99.0516L89 99L88 99ZM61 128L62 128L62 127.948L61.9947 127.897L61 128ZM85 128L84.0053 127.897L84 127.948L84 128L85 128ZM79 133L67 133L67 135L79 135L79 133ZM87.0053 98.8971L84.0053 127.897L85.9947 128.103L88.9947 99.1029L87.0053 98.8971ZM126 92L94 92L94 94L126 94L126 92ZM134.008 62.876L131.008 86.876L132.992 87.124L135.992 63.124L134.008 62.876ZM97 58L129 58L129 56L97 56L97 58ZM90 19L90 51L92 51L92 19L90 19ZM61 14L85 14L85 12L61 12L61 14ZM56 51L56 19L54 19L54 51L56 51ZM17 58L49 58L49 56L17 56L17 58ZM14.9923 86.876L11.9923 62.876L10.0077 63.124L13.0077 87.124L14.9923 86.876ZM52 92L20 92L20 94L52 94L52 92ZM61.9947 127.897L58.9947 98.8971L57.0053 99.1029L60.0053 128.103L61.9947 127.897ZM52 94C54.7614 94 57 96.2386 57 99L59 99C59 95.134 55.866 92 52 92L52 94ZM13 87C13 90.866 16.134 94 20 94L20 92C17.2386 92 15 89.7614 15 87L13 87ZM17 56C13.134 56 10 59.134 10 63L12 63C12 60.2386 14.2386 58 17 58L17 56ZM54 51C54 53.7614 51.7614 56 49 56L49 58C52.866 58 56 54.866 56 51L54 51ZM61 12C57.134 12 54 15.134 54 19L56 19C56 16.2386 58.2386 14 61 14L61 12ZM92 19C92 15.134 88.866 12 85 12L85 14C87.7614 14 90 16.2386 90 19L92 19ZM97 56C94.2386 56 92 53.7614 92 51L90 51C90 54.866 93.134 58 97 58L97 56ZM136 63C136 59.134 132.866 56 129 56L129 58C131.761 58 134 60.2386 134 63L136 63ZM126 94C129.866 94 133 90.866 133 87L131 87C131 89.7614 128.761 92 126 92L126 94ZM89 99C89 96.2386 91.2386 94 94 94L94 92C90.134 92 87 95.134 87 99L89 99ZM67 133C64.2386 133 62 130.761 62 128L60 128C60 131.866 63.134 135 67 135L67 133ZM79 135C82.866 135 86 131.866 86 128L84 128C84 130.761 81.7614 133 79 133L79 135ZM45 100L45 98H45L45 100ZM51 106L49 106L49 106.1L49.0099 106.199L51 106ZM6 94L8 94L8 93.9212L7.9938 93.8426L6 94ZM12 100L12 102H12L12 100ZM3.00001 56L1.00001 56L1.00001 56.0788L1.00621 56.1574L3.00001 56ZM143 56L144.994 56.1574L145 56.0788L145 56L143 56ZM134 100L134 98H134L134 100ZM140 94L138.006 93.8426L138 93.9212L138 94L140 94ZM95 106L96.9901 106.199L97 106.1L97 106L95 106ZM101 100L101 102H101L101 100ZM54 136L56 136L56 135.9L55.9901 135.801L54 136ZM92 136L90.0099 135.801L90 135.9L90 136L92 136ZM73.5 125L71.7139 125.9L73.5 129.445L75.2861 125.9L73.5 125ZM64.8087 107.75L64.8087 105.75L61.5614 105.75L63.0226 108.65L64.8087 107.75ZM82.1913 107.75L83.9774 108.65L85.4386 105.75L82.1913 105.75L82.1913 107.75ZM73.5 19L75.2321 18L73.5 15L71.768 18L73.5 19ZM85.1914 39.25L85.1914 41.25L88.6555 41.25L86.9234 38.25L85.1914 39.25ZM61.8087 39.25L60.0766 38.25L58.3446 41.25L61.8087 41.25L61.8087 39.25ZM36.3088 62.8673L38.2925 62.6128L37.9102 59.6333L35.3088 61.1352L36.3088 62.8673ZM39.3088 86.25L38.4103 88.0368L41.7713 89.7269L41.2925 85.9955L39.3088 86.25ZM16.0588 74.5586L15.0588 72.8266L11.8484 74.6801L15.1603 76.3455L16.0588 74.5586ZM103.809 86.25L101.825 85.9955L101.346 89.7269L104.707 88.0368L103.809 86.25ZM106.809 62.8673L107.809 61.1353L105.207 59.6333L104.825 62.6128L106.809 62.8673ZM127.059 74.5587L127.957 76.3455L131.269 74.6801L128.059 72.8266L127.059 74.5587ZM86 140L60 140L60 144L86 144L86 140ZM93.0099 105.801L90.0099 135.801L93.9901 136.199L96.9901 106.199L93.0099 105.801ZM134 98L101 98L101 102L134 102L134 98ZM141.006 55.8426L138.006 93.8426L141.994 94.1574L144.994 56.1574L141.006 55.8426ZM104 52L137 52L137 48L104 48L104 52ZM96 11L96 44L100 44L100 11L96 11ZM54 6.99999L92 7L92 3L54 2.99999L54 6.99999ZM50 44L50 11L46 11L46 44L50 44ZM9.00001 52L42 52L42 48L9.00001 48L9.00001 52ZM7.9938 93.8426L4.9938 55.8426L1.00621 56.1574L4.00621 94.1574L7.9938 93.8426ZM45 98L12 98L12 102L45 102L45 98ZM55.9901 135.801L52.9901 105.801L49.0099 106.199L52.0099 136.199L55.9901 135.801ZM45 102C47.2091 102 49 103.791 49 106L53 106C53 101.582 49.4183 98 45 98L45 102ZM4 94C4 98.4183 7.58173 102 12 102L12 98C9.79086 98 8 96.2091 8 94L4 94ZM9.00001 48C4.58173 48 1.00001 51.5817 1.00001 56L5.00001 56C5.00001 53.7909 6.79087 52 9.00001 52L9.00001 48ZM46 44C46 46.2091 44.2091 48 42 48L42 52C46.4183 52 50 48.4183 50 44L46 44ZM54 2.99999C49.5817 2.99999 46 6.58171 46 11L50 11C50 8.79085 51.7909 6.99999 54 6.99999L54 2.99999ZM100 11C100 6.58172 96.4183 3 92 3L92 7C94.2091 7 96 8.79086 96 11L100 11ZM104 48C101.791 48 100 46.2091 100 44L96 44C96 48.4183 99.5817 52 104 52L104 48ZM145 56C145 51.5817 141.418 48 137 48L137 52C139.209 52 141 53.7909 141 56L145 56ZM134 102C138.418 102 142 98.4183 142 94L138 94C138 96.2091 136.209 98 134 98L134 102ZM97 106C97 103.791 98.7909 102 101 102L101 98C96.5817 98 93 101.582 93 106L97 106ZM60 140C57.7909 140 56 138.209 56 136L52 136C52 140.418 55.5817 144 60 144L60 140ZM86 144C90.4183 144 94 140.418 94 136L90 136C90 138.209 88.2091 140 86 140L86 144ZM75.2861 124.1L66.5948 106.85L63.0226 108.65L71.7139 125.9L75.2861 124.1ZM64.8087 109.75L82.1913 109.75L82.1913 105.75L64.8087 105.75L64.8087 109.75ZM80.4052 106.85L71.7139 124.1L75.2861 125.9L83.9774 108.65L80.4052 106.85ZM71.768 20L83.4593 40.25L86.9234 38.25L75.2321 18L71.768 20ZM85.1914 37.25L61.8087 37.25L61.8087 41.25L85.1914 41.25L85.1914 37.25ZM63.5407 40.25L75.2321 20L71.768 18L60.0766 38.25L63.5407 40.25ZM34.325 63.1218L37.325 86.5045L41.2925 85.9955L38.2925 62.6128L34.325 63.1218ZM40.2073 84.4632L16.9573 72.7718L15.1603 76.3455L38.4103 88.0368L40.2073 84.4632ZM17.0588 76.2907L37.3088 64.5994L35.3088 61.1352L15.0588 72.8266L17.0588 76.2907ZM105.792 86.5045L108.792 63.1218L104.825 62.6128L101.825 85.9955L105.792 86.5045ZM105.809 64.5994L126.059 76.2907L128.059 72.8266L107.809 61.1353L105.809 64.5994ZM126.16 72.7718L102.91 84.4632L104.707 88.0368L127.957 76.3455L126.16 72.7718ZM63 75C63 69.4771 67.4772 65 73 65L73 61C65.268 61 59 67.268 59 75L63 75ZM73 65C78.5229 65 83 69.4771 83 75L87 75C87 67.268 80.732 61 73 61L73 65ZM83 75C83 80.5228 78.5229 85 73 85L73 89C80.732 89 87 82.732 87 75L83 75ZM73 85C67.4772 85 63 80.5228 63 75L59 75C59 82.732 65.268 89 73 89L73 85Z" fill="black" mask="url(#path-2-inside-1_12_67)"/>
</svg>
