<svg width="140" height="144" viewBox="0 0 140 144" fill="none" xmlns="http://www.w3.org/2000/svg">
<path d="M2.62266e-07 90L0 93C-2.89694e-07 96.3137 2.68628 99 6 99H39C42.3137 99 45 101.686 45 105V102C45 98.6863 42.3137 96 39 96H6C2.68629 96 -2.74272e-08 93.3137 2.62266e-07 90Z" fill="black" fill-opacity="0.25"/>
<path d="M45 135V138C45 141.314 47.6863 144 51 144H89C92.3137 144 95 141.314 95 138V135.002C94.9989 138.315 92.313 141 89 141H51C47.6863 141 45 138.314 45 135Z" fill="black" fill-opacity="0.25"/>
<path d="M95 104.993C95.0037 101.683 97.6886 99 101 99H134C137.314 99 140 96.3137 140 93V90.0098C139.995 93.319 137.31 96 134 96H101C97.6863 96 95 98.6863 95 102V104.993Z" fill="black" fill-opacity="0.25"/>
<mask id="path-2-inside-1_12_70" fill="white">
<path d="M45 135C45 138.314 47.6863 141 51 141L89 141C92.3137 141 95 138.314 95 135L95 102C95 98.6863 97.6863 96 101 96L134 96C137.314 96 140 93.3137 140 90L140 51C140 47.6863 137.314 45 134 45L101 45C97.6863 45 95 42.3137 95 39L95 6.00001C95 2.6863 92.3137 1.10899e-05 89 1.08002e-05L51 7.47816e-06C47.6863 7.18847e-06 45 2.6863 45 6.00001L45 39C45 42.3137 42.3137 45 39 45L6.00001 45C2.6863 45 8.15774e-06 47.6863 7.86805e-06 51L4.45856e-06 90C4.16887e-06 93.3137 2.6863 96 6 96L39 96C42.3137 96 45 98.6863 45 102L45 135Z"/>
<path d="M58 70C58 63.3726 63.3726 58 70 58C76.6274 58 82 63.3726 82 70C82 76.6274 76.6274 82 70 82C63.3726 82 58 76.6274 58 70Z"/>
</mask>
<path d="M70.5 122L69.6453 122.519L70.5 123.926L71.3547 122.519L70.5 122ZM58.8087 102.75L58.8087 101.75L57.0313 101.75L57.9539 103.269L58.8087 102.75ZM82.1913 102.75L83.0461 103.269L83.9687 101.75L82.1913 101.75L82.1913 102.75ZM70.5 14L71.366 13.5L70.5 12L69.634 13.5L70.5 14ZM82.1914 34.25L82.1914 35.25L83.9234 35.25L83.0574 33.75L82.1914 34.25ZM58.8087 34.25L57.9426 33.75L57.0766 35.25L58.8087 35.25L58.8087 34.25ZM33.3088 57.8673L34.3088 57.8673L34.3088 56.1353L32.8088 57.0013L33.3088 57.8673ZM33.3088 82.25L32.7777 83.0973L34.3088 84.0569L34.3088 82.25L33.3088 82.25ZM13.0588 69.5587L12.5588 68.6926L11.1197 69.5235L12.5277 70.406L13.0588 69.5587ZM103.809 82.25L102.809 82.25L102.809 84.0569L104.34 83.0973L103.809 82.25ZM103.809 57.8673L104.309 57.0013L102.809 56.1353L102.809 57.8673L103.809 57.8673ZM124.059 69.5587L124.59 70.406L125.998 69.5235L124.559 68.6926L124.059 69.5587ZM82 132L58 132L58 134L82 134L82 132ZM87 95L87 127L89 127L89 95L87 95ZM126 88L94 88L94 90L126 90L126 88ZM131 58L131 83L133 83L133 58L131 58ZM94 53L126 53L126 51L94 51L94 53ZM87 14L87 46L89 46L89 14L87 14ZM58 9.00001L82 9.00001L82 7.00001L58 7.00001L58 9.00001ZM53 46L53 14L51 14L51 46L53 46ZM14 53L46 53L46 51L14 51L14 53ZM9.00001 83L9.00001 58L7.00001 58L7.00001 83L9.00001 83ZM46 88L14 88L14 90L46 90L46 88ZM53 127L53 95L51 95L51 127L53 127ZM46 90C48.7614 90 51 92.2386 51 95L53 95C53 91.134 49.866 88 46 88L46 90ZM7.00001 83C7 86.866 10.134 90 14 90L14 88C11.2386 88 9 85.7614 9.00001 83L7.00001 83ZM14 51C10.134 51 7.00001 54.134 7.00001 58L9.00001 58C9.00001 55.2386 11.2386 53 14 53L14 51ZM51 46C51 48.7614 48.7614 51 46 51L46 53C49.866 53 53 49.866 53 46L51 46ZM58 7.00001C54.134 7.00001 51 10.134 51 14L53 14C53 11.2386 55.2386 9.00001 58 9.00001L58 7.00001ZM89 14C89 10.134 85.866 7.00001 82 7.00001L82 9.00001C84.7614 9.00001 87 11.2386 87 14L89 14ZM94 51C91.2386 51 89 48.7614 89 46L87 46C87 49.866 90.134 53 94 53L94 51ZM133 58C133 54.134 129.866 51 126 51L126 53C128.761 53 131 55.2386 131 58L133 58ZM126 90C129.866 90 133 86.866 133 83L131 83C131 85.7614 128.761 88 126 88L126 90ZM89 95C89 92.2386 91.2386 90 94 90L94 88C90.134 88 87 91.134 87 95L89 95ZM58 132C55.2386 132 53 129.761 53 127L51 127C51 130.866 54.134 134 58 134L58 132ZM82 134C85.866 134 89 130.866 89 127L87 127C87 129.761 84.7614 132 82 132L82 134ZM71.3547 121.481L59.6634 102.231L57.9539 103.269L69.6453 122.519L71.3547 121.481ZM58.8087 103.75L82.1913 103.75L82.1913 101.75L58.8087 101.75L58.8087 103.75ZM81.3366 102.231L69.6453 121.481L71.3547 122.519L83.0461 103.269L81.3366 102.231ZM69.634 14.5L81.3253 34.75L83.0574 33.75L71.366 13.5L69.634 14.5ZM82.1914 33.25L58.8087 33.25L58.8087 35.25L82.1914 35.25L82.1914 33.25ZM59.6747 34.75L71.366 14.5L69.634 13.5L57.9426 33.75L59.6747 34.75ZM32.3088 57.8673L32.3088 82.25L34.3088 82.25L34.3088 57.8673L32.3088 57.8673ZM33.8398 81.4027L13.5898 68.7113L12.5277 70.406L32.7777 83.0973L33.8398 81.4027ZM13.5588 70.4247L33.8088 58.7333L32.8088 57.0013L12.5588 68.6926L13.5588 70.4247ZM104.809 82.25L104.809 57.8673L102.809 57.8673L102.809 82.25L104.809 82.25ZM103.309 58.7334L123.559 70.4247L124.559 68.6926L104.309 57.0013L103.309 58.7334ZM123.528 68.7113L103.278 81.4027L104.34 83.0973L124.59 70.406L123.528 68.7113ZM39 96L39 94H39L39 96ZM6 96L6 98H6L6 96ZM140 51L138 51L140 51ZM134 96L134 94H134L134 96ZM140 90L142 90L140 90ZM101 96L101 98H101L101 96ZM51 141L51 143H51L51 141ZM89 141L89 139H89L89 141ZM89 139L51 139L51 143L89 143L89 139ZM93 102L93 135L97 135L97 102L93 102ZM134 94L101 94L101 98L134 98L134 94ZM138 51L138 90L142 90L142 51L138 51ZM101 47L134 47L134 43L101 43L101 47ZM93 6.00001L93 39L97 39L97 6.00001L93 6.00001ZM51 2.00001L89 2.00001L89 -1.99999L51 -1.99999L51 2.00001ZM47 39L47 6.00001L43 6.00001L43 39L47 39ZM6.00001 47L39 47L39 43L6.00001 43L6.00001 47ZM2 90L2.00001 51L-1.99999 51L-2 90L2 90ZM39 94L6 94L6 98L39 98L39 94ZM47 135L47 102L43 102L43 135L47 135ZM39 98C41.2091 98 43 99.7909 43 102L47 102C47 97.5817 43.4183 94 39 94L39 98ZM-2 90C-2 94.4183 1.58173 98 6 98L6 94C3.79086 94 2 92.2092 2 90L-2 90ZM6.00001 43C1.58173 43 -1.99999 46.5817 -1.99999 51L2.00001 51C2.00001 48.7909 3.79087 47 6.00001 47L6.00001 43ZM43 39C43 41.2092 41.2091 43 39 43L39 47C43.4183 47 47 43.4183 47 39L43 39ZM51 -1.99999C46.5817 -1.99999 43 1.58173 43 6.00001L47 6.00001C47 3.79087 48.7909 2.00001 51 2.00001L51 -1.99999ZM97 6.00001C97 1.58173 93.4183 -1.99999 89 -1.99999L89 2.00001C91.2091 2.00001 93 3.79087 93 6.00001L97 6.00001ZM101 43C98.7909 43 97 41.2091 97 39L93 39C93 43.4183 96.5817 47 101 47L101 43ZM142 51C142 46.5817 138.418 43 134 43L134 47C136.209 47 138 48.7909 138 51L142 51ZM134 98C138.418 98 142 94.4183 142 90L138 90C138 92.2092 136.209 94 134 94L134 98ZM97 102C97 99.7909 98.7909 98 101 98L101 94C96.5817 94 93 97.5817 93 102L97 102ZM51 139C48.7909 139 47 137.209 47 135L43 135C43 139.418 46.5817 143 51 143L51 139ZM89 143C93.4183 143 97 139.418 97 135L93 135C93 137.209 91.2091 139 89 139L89 143ZM60 70C60 64.4772 64.4772 60 70 60L70 56C62.268 56 56 62.268 56 70L60 70ZM70 60C75.5229 60 80 64.4772 80 70L84 70C84 62.268 77.732 56 70 56L70 60ZM80 70C80 75.5229 75.5229 80 70 80L70 84C77.732 84 84 77.732 84 70L80 70ZM70 80C64.4772 80 60 75.5229 60 70L56 70C56 77.732 62.268 84 70 84L70 80Z" fill="black" mask="url(#path-2-inside-1_12_70)"/>
<mask id="path-4-inside-2_12_70" fill="white">
<path d="M70.5001 14L82.1914 34.25L58.8087 34.25L70.5001 14Z"/>
</mask>
<path d="M70.5001 14L72.2321 13L70.5001 10L68.768 13L70.5001 14ZM82.1914 34.25L82.1914 36.25L85.6555 36.25L83.9235 33.25L82.1914 34.25ZM58.8087 34.25L57.0767 33.25L55.3446 36.25L58.8087 36.25L58.8087 34.25ZM68.768 15L80.4594 35.25L83.9235 33.25L72.2321 13L68.768 15ZM82.1914 32.25L58.8087 32.25L58.8087 36.25L82.1914 36.25L82.1914 32.25ZM60.5408 35.25L72.2321 15L68.768 13L57.0767 33.25L60.5408 35.25Z" fill="black" mask="url(#path-4-inside-2_12_70)"/>
<mask id="path-6-inside-3_12_70" fill="white">
<path d="M33.3086 57.8673L33.3086 82.25L13.0586 69.5587L33.3086 57.8673Z"/>
</mask>
<path d="M33.3086 57.8673L35.3086 57.8673L35.3086 54.4032L32.3086 56.1353L33.3086 57.8673ZM33.3086 82.25L32.2465 83.9447L35.3086 85.8638L35.3086 82.25L33.3086 82.25ZM13.0586 69.5587L12.0586 67.8266L9.18035 69.4884L11.9965 71.2533L13.0586 69.5587ZM31.3086 57.8673L31.3086 82.25L35.3086 82.25L35.3086 57.8673L31.3086 57.8673ZM34.3707 80.5553L14.1207 67.864L11.9965 71.2533L32.2465 83.9447L34.3707 80.5553ZM14.0586 71.2907L34.3086 59.5994L32.3086 56.1353L12.0586 67.8266L14.0586 71.2907Z" fill="black" mask="url(#path-6-inside-3_12_70)"/>
<mask id="path-8-inside-4_12_70" fill="white">
<path d="M70.5001 122L58.8087 102.75L82.1914 102.75L70.5001 122Z"/>
</mask>
<path d="M70.5001 122L68.7906 123.038L70.5001 125.853L72.2095 123.038L70.5001 122ZM58.8087 102.75L58.8087 100.75L55.2541 100.75L57.0993 103.788L58.8087 102.75ZM82.1914 102.75L83.9008 103.788L85.7461 100.75L82.1914 100.75L82.1914 102.75ZM72.2095 120.962L60.5181 101.712L57.0993 103.788L68.7906 123.038L72.2095 120.962ZM58.8087 104.75L82.1914 104.75L82.1914 100.75L58.8087 100.75L58.8087 104.75ZM80.482 101.712L68.7906 120.962L72.2095 123.038L83.9008 103.788L80.482 101.712Z" fill="black" mask="url(#path-8-inside-4_12_70)"/>
<mask id="path-10-inside-5_12_70" fill="white">
<path d="M103.809 82.25L103.809 57.8673L124.059 69.5587L103.809 82.25Z"/>
</mask>
<path d="M103.809 82.25L101.809 82.25L101.809 85.8638L104.871 83.9447L103.809 82.25ZM103.809 57.8673L104.809 56.1353L101.809 54.4032L101.809 57.8673L103.809 57.8673ZM124.059 69.5587L125.121 71.2533L127.937 69.4884L125.059 67.8266L124.059 69.5587ZM105.809 82.25L105.809 57.8673L101.809 57.8673L101.809 82.25L105.809 82.25ZM102.809 59.5994L123.059 71.2907L125.059 67.8266L104.809 56.1353L102.809 59.5994ZM122.996 67.864L102.746 80.5553L104.871 83.9447L125.121 71.2533L122.996 67.864Z" fill="black" mask="url(#path-10-inside-5_12_70)"/>
</svg>
