<svg width="146" height="142" viewBox="0 0 146 142" fill="none" xmlns="http://www.w3.org/2000/svg">
<path d="M92 8C92 4.68629 89.3137 2 86 2H60C56.6863 2 54 4.68629 54 8V41C54 44.3137 45.3137 47 42 47L9 47C5.68629 47 3 49.6863 3 53L0 91C1.44847e-07 94.3137 2.68629 97 6 97H39C42.3137 97 45 99.6863 45 103V136C45 139.314 47.6863 142 51 142H95C98.3137 142 101 139.314 101 136V103C101 99.6863 103.686 97 107 97H140C143.314 97 146 94.3137 146 91L143 53C143 49.6863 140.314 47 137 47L104 47C100.686 47 92 44.3137 92 41V8Z" fill="black" fill-opacity="0.25"/>
<mask id="path-2-inside-1_12_46" fill="white">
<path d="M92 6C92 2.68629 89.3137 0 86 0H60C56.6863 0 54 2.68629 54 6L51 36C51 39.3137 48.3137 42 45 42L12 42C8.68629 42 6 44.6863 6 48L3 86C3 89.3137 5.68629 92 9 92H42C45.3137 92 48 94.6863 48 98V131C48 134.314 50.6863 137 54 137H92C95.3137 137 98 134.314 98 131V98C98 94.6863 100.686 92 104 92H137C140.314 92 143 89.3137 143 86L140 48C140 44.6863 137.314 42 134 42L101 42C97.6863 42 95 39.3137 95 36L92 6Z"/>
<path d="M72.5 17L81.1913 34.25H63.8087L72.5 17Z"/>
<path d="M72.5 123L60.8087 102.75H84.1913L72.5 123Z"/>
<path d="M109.691 79.1327L106.691 55.75L129.941 67.4413L109.691 79.1327Z"/>
<path d="M42.1913 55.75L39.1913 79.1327L18.9413 67.4413L42.1913 55.75Z"/>
<path d="M85 67C85 73.6274 79.6274 79 73 79C66.3726 79 61 73.6274 61 67C61 60.3726 66.3726 55 73 55C79.6274 55 85 60.3726 85 67Z"/>
</mask>
<path d="M88 43H89V42.9484L88.9947 42.8971L88 43ZM132 55H131V55.0623L131.008 55.124L132 55ZM135 79H136V78.9377L135.992 78.876L135 79ZM11 79L10.0077 78.876L10 78.9377V79H11ZM14 55L14.9923 55.124L15 55.0623V55H14ZM58 43L57.0053 42.8971L57 42.9484V43H58ZM85 14H84V14.0516L84.0053 14.1029L85 14ZM61 14L61.9947 14.1029L62 14.0516V14H61ZM67 9H79V7H67V9ZM58.9947 43.1029L61.9947 14.1029L60.0053 13.8971L57.0053 42.8971L58.9947 43.1029ZM20 50H52V48H20V50ZM11.9923 79.124L14.9923 55.124L13.0077 54.876L10.0077 78.876L11.9923 79.124ZM49 84H17V86H49V84ZM56 123V91H54V123H56ZM85 128H61V130H85V128ZM90 91V123H92V91H90ZM129 84H97V86H129V84ZM131.008 55.124L134.008 79.124L135.992 78.876L132.992 54.876L131.008 55.124ZM94 50H126V48H94V50ZM84.0053 14.1029L87.0053 43.1029L88.9947 42.8971L85.9947 13.8971L84.0053 14.1029ZM94 48C91.2386 48 89 45.7614 89 43H87C87 46.866 90.134 50 94 50V48ZM133 55C133 51.134 129.866 48 126 48V50C128.761 50 131 52.2386 131 55H133ZM129 86C132.866 86 136 82.866 136 79H134C134 81.7614 131.761 84 129 84V86ZM92 91C92 88.2386 94.2386 86 97 86V84C93.134 84 90 87.134 90 91H92ZM85 130C88.866 130 92 126.866 92 123H90C90 125.761 87.7614 128 85 128V130ZM54 123C54 126.866 57.134 130 61 130V128C58.2386 128 56 125.761 56 123H54ZM49 86C51.7614 86 54 88.2386 54 91H56C56 87.134 52.866 84 49 84V86ZM10 79C10 82.866 13.134 86 17 86V84C14.2386 84 12 81.7614 12 79H10ZM20 48C16.134 48 13 51.134 13 55H15C15 52.2386 17.2386 50 20 50V48ZM57 43C57 45.7614 54.7614 48 52 48V50C55.866 50 59 46.866 59 43H57ZM79 9C81.7614 9 84 11.2386 84 14H86C86 10.134 82.866 7 79 7V9ZM67 7C63.134 7 60 10.134 60 14H62C62 11.2386 64.2386 9 67 9V7ZM101 42L101 44L101 44L101 42ZM95 36H97V35.9002L96.9901 35.801L95 36ZM140 48H138V48.0788L138.006 48.1574L140 48ZM134 42L134 40L134 40L134 42ZM143 86H145V85.9212L144.994 85.8426L143 86ZM3 86L1.0062 85.8426L1 85.9212L1 86L3 86ZM12 42L12 44L12 44L12 42ZM6 48L7.99379 48.1574L8 48.0788L8 48L6 48ZM51 36L49.0099 35.801L49 35.9002V36H51ZM45 42L45 40L45 40L45 42ZM92 6H90V6.09975L90.0099 6.19901L92 6ZM54 6L55.9901 6.19901L56 6.09975V6H54ZM72.5 17L74.2861 16.1001L72.5 12.5552L70.7139 16.1001L72.5 17ZM81.1913 34.25V36.25H84.4386L82.9774 33.3501L81.1913 34.25ZM63.8087 34.25L62.0226 33.3501L60.5614 36.25H63.8087V34.25ZM72.5 123L70.7679 124L72.5 127L74.2321 124L72.5 123ZM60.8087 102.75V100.75H57.3446L59.0766 103.75L60.8087 102.75ZM84.1913 102.75L85.9234 103.75L87.6554 100.75H84.1913V102.75ZM109.691 79.1327L107.707 79.3872L108.09 82.3667L110.691 80.8647L109.691 79.1327ZM106.691 55.75L107.59 53.9632L104.229 52.2731L104.707 56.0045L106.691 55.75ZM129.941 67.4413L130.941 69.1734L134.152 67.3199L130.84 65.6545L129.941 67.4413ZM42.1913 55.75L44.1751 56.0045L44.6538 52.2731L41.2928 53.9632L42.1913 55.75ZM39.1913 79.1327L38.1913 80.8647L40.7928 82.3667L41.1751 79.3872L39.1913 79.1327ZM18.9413 67.4413L18.0428 65.6545L14.731 67.3199L17.9413 69.1734L18.9413 67.4413ZM60 2H86V-2H60V2ZM52.9901 36.199L55.9901 6.19901L52.0099 5.80099L49.0099 35.801L52.9901 36.199ZM12 44L45 44L45 40L12 40L12 44ZM4.9938 86.1574L7.99379 48.1574L4.0062 47.8426L1.0062 85.8426L4.9938 86.1574ZM42 90H9V94H42V90ZM50 131V98H46V131H50ZM92 135H54V139H92V135ZM96 98V131H100V98H96ZM137 90H104V94H137V90ZM138.006 48.1574L141.006 86.1574L144.994 85.8426L141.994 47.8426L138.006 48.1574ZM101 44L134 44L134 40L101 40L101 44ZM90.0099 6.19901L93.0099 36.199L96.9901 35.801L93.9901 5.80099L90.0099 6.19901ZM101 40C98.7909 40 97 38.2091 97 36H93C93 40.4183 96.5817 44 101 44L101 40ZM142 48C142 43.5817 138.418 40 134 40L134 44C136.209 44 138 45.7909 138 48H142ZM137 94C141.418 94 145 90.4183 145 86H141C141 88.2091 139.209 90 137 90V94ZM100 98C100 95.7909 101.791 94 104 94V90C99.5817 90 96 93.5817 96 98H100ZM92 139C96.4183 139 100 135.418 100 131H96C96 133.209 94.2091 135 92 135V139ZM46 131C46 135.418 49.5817 139 54 139V135C51.7909 135 50 133.209 50 131H46ZM42 94C44.2091 94 46 95.7909 46 98H50C50 93.5817 46.4183 90 42 90V94ZM1 86C1 90.4183 4.58172 94 9 94V90C6.79086 90 5 88.2091 5 86L1 86ZM12 40C7.58172 40 4 43.5817 4 48L8 48C8 45.7909 9.79086 44 12 44L12 40ZM49 36C49 38.2091 47.2091 40 45 40L45 44C49.4183 44 53 40.4183 53 36H49ZM86 2C88.2091 2 90 3.79086 90 6H94C94 1.58172 90.4183 -2 86 -2V2ZM60 -2C55.5817 -2 52 1.58172 52 6H56C56 3.79086 57.7909 2 60 2V-2ZM70.7139 17.8999L79.4052 35.1499L82.9774 33.3501L74.2861 16.1001L70.7139 17.8999ZM81.1913 32.25H63.8087V36.25H81.1913V32.25ZM65.5948 35.1499L74.2861 17.8999L70.7139 16.1001L62.0226 33.3501L65.5948 35.1499ZM74.2321 122L62.5407 101.75L59.0766 103.75L70.7679 124L74.2321 122ZM60.8087 104.75H84.1913V100.75H60.8087V104.75ZM82.4593 101.75L70.7679 122L74.2321 124L85.9234 103.75L82.4593 101.75ZM111.675 78.8782L108.675 55.4955L104.707 56.0045L107.707 79.3872L111.675 78.8782ZM105.793 57.5368L129.043 69.2282L130.84 65.6545L107.59 53.9632L105.793 57.5368ZM128.941 65.7093L108.691 77.4006L110.691 80.8647L130.941 69.1734L128.941 65.7093ZM40.2076 55.4955L37.2076 78.8782L41.1751 79.3872L44.1751 56.0045L40.2076 55.4955ZM40.1913 77.4006L19.9413 65.7093L17.9413 69.1734L38.1913 80.8647L40.1913 77.4006ZM19.8398 69.2282L43.0898 57.5368L41.2928 53.9632L18.0428 65.6545L19.8398 69.2282ZM83 67C83 72.5228 78.5228 77 73 77V81C80.732 81 87 74.732 87 67H83ZM73 77C67.4772 77 63 72.5228 63 67H59C59 74.732 65.268 81 73 81V77ZM63 67C63 61.4772 67.4772 57 73 57V53C65.268 53 59 59.268 59 67H63ZM73 57C78.5228 57 83 61.4772 83 67H87C87 59.268 80.732 53 73 53V57Z" fill="black" mask="url(#path-2-inside-1_12_46)"/>
</svg>
